<svg id="Layer_1" data-name="Layer 1" xmlns="http://www.w3.org/2000/svg" viewBox="0 0 3293.1 695"><defs><style>.cls-1{fill:#7289da;}</style></defs><path class="cls-1" d="M371.16,291.6c-20,0-35.75,17.17-35.75,38.55s16.12,38.55,35.75,38.55c20,0,35.75-17.17,35.75-38.55S390.78,291.6,371.16,291.6Zm-127.93,0c-20,0-35.75,17.17-35.75,38.55s16.13,38.55,35.75,38.55c20,0,35.75-17.17,35.75-38.55C279.33,308.77,263.21,291.6,243.23,291.6ZM541.49,0H71.85A71.94,71.94,0,0,0,0,71.85V541.49a72,72,0,0,0,71.85,71.85H469.29L450.72,549.2l44.86,41.36L538,629.46,613.69,695V71.85C613.34,32.24,581.09,0,541.49,0ZM406.21,453.87s-12.62-15.07-23.14-28c45.92-13,63.44-41.35,63.44-41.35a200.47,200.47,0,0,1-40.3,20.67,251.22,251.22,0,0,1-50.82,15.07,245.45,245.45,0,0,1-90.78-.35,266.27,266.27,0,0,1-51.52-15.07,205.54,205.54,0,0,1-25.58-11.91c-1.06-.7-2.11-1.05-3.16-1.76-.7-.35-1-.7-1.4-.7-6.31-3.5-9.81-5.95-9.81-5.95s16.82,27.68,61.33,41C224,438.8,211,454.22,211,454.22c-77.46-2.45-106.9-52.92-106.9-52.92,0-111.8,50.47-202.58,50.47-202.58,50.47-37.5,98.14-36.45,98.14-36.45l3.5,4.21C193.11,184.35,164.37,212,164.37,212s7.72-4.21,20.68-9.81c37.5-16.48,67.29-20.68,79.56-22.08a34.6,34.6,0,0,1,6-.7,296.43,296.43,0,0,1,70.8-.71A291.41,291.41,0,0,1,446.86,212s-27.69-26.29-87.27-44.16l4.91-5.61s48-1.05,98.13,36.45c0,0,50.47,90.78,50.47,202.58C513.1,401,483.66,451.42,406.21,453.87Z"/><path class="cls-1" d="M2295.29,359.24V252c0-38.55,69.39-47.31,90.42-8.76l64.14-25.93c-25.24-55.38-71.15-71.5-109.35-71.5-62.39,0-124.07,36.1-124.07,106.19V359.24c0,70.8,61.68,106.2,122.67,106.2,39.25,0,86.22-19.28,112.15-69.75l-68.69-31.54c-16.83,43.11-87.27,32.59-87.27-4.91Z"/><path class="cls-1" d="M3172.19,150H3055.83V280.73l77.45,69.75V223.61h41.36c26.29,0,39.25,12.61,39.25,32.94v97.08c0,20.33-12.26,34-39.25,34H3055.48v73.95h116.71c62.38.35,120.91-30.84,120.91-102.34V254.8C3293.1,181.9,3234.57,150,3172.19,150Z"/><path class="cls-1" d="M2601.26,145.8c-64.49,0-128.63,35-128.63,106.9V358.89c0,71.15,64.49,106.9,129.33,106.9,64.48,0,128.62-35.75,128.62-106.9V252.7C2730.58,181.2,2665.74,145.8,2601.26,145.8Zm50.46,213.09c0,22.43-25.23,34-50.11,34-25.24,0-50.47-10.87-50.47-34V252.7c0-22.79,24.53-35,49.06-35,25.59,0,51.52,10.86,51.52,35Z"/><path class="cls-1" d="M2951.38,354.68c37.51-11.91,61-44.51,61-102-1.75-72.9-51.52-102.34-115.66-102.34H2772.29V461.58h79.56V362.75h14l72.2,98.83h98.13Zm-53.27-59.93h-46.26V223.61h46.26C2947.53,223.61,2947.53,294.75,2898.11,294.75Z"/><path class="cls-1" d="M1053.43,395.38c-25.93,50.53-73,69.88-112.08,69.88-61.08,0-122.63-35.61-122.63-106.37V251.64c0-70.34,61.55-106.37,124-106.37,38.23,0,84.39,16.27,109.45,71.64L988,242.85c-21.1-38.7-90.52-29.9-90.52,8.79V358.89c0,37.36,70.34,47.91,87.48,4.84Z"/><path class="cls-1" d="M1082,149.65h79.1V383h126.59v77.81H1082Z"/><path class="cls-1" d="M1583,460.84h-84.35l-20.22-62.42H1395.4l-19.35,62.42h-84.4l108.58-311.19h71.64ZM1459.57,328.58l-21.51-91h-2.26l-22.85,91Z"/><path class="cls-1" d="M1633.61,362.39c31.19,37.78,99.79,39.57,102,6.17.88-17.59-27.69-27.68-53.16-31.18-50.12-7.93-95.82-39.58-95.82-98.91,0-61.13,55.37-93.2,112.5-93.2,37.82,0,74.26,10.55,106.37,49.66L1754,234.51c-32.52-34.74-88.35-33.4-89.64,2.62.87,14.93,17.13,23.73,41.32,29,55.37,10.08,110.75,29.43,107.25,105.91-2.63,60.21-65.93,93.19-123,93.19-37.36,0-76.93-18.89-105.91-56.25Z"/><path class="cls-1" d="M1881.5,362.39c31.19,37.78,99.79,39.57,102,6.17.88-17.59-27.68-27.68-53.16-31.18-50.12-7.93-95.82-39.58-95.82-98.91,0-61.13,55.37-93.2,112.5-93.2,37.82,0,74.26,10.55,106.37,49.66l-51.41,39.58c-32.53-34.74-88.36-33.4-89.65,2.62.87,14.93,17.14,23.73,41.32,29,55.37,10.08,110.75,29.43,107.25,105.91-2.63,60.21-65.93,93.19-123,93.19-37.36,0-76.93-18.89-105.91-56.25Z"/><path class="cls-1" d="M2173.34,460.84h-78.68V149.65h78.68Z"/></svg>